<?xml version="1.0" standalone="no"?><!DOCTYPE svg PUBLIC "-//W3C//DTD SVG 1.1//EN" "http://www.w3.org/Graphics/SVG/1.1/DTD/svg11.dtd"><svg class="icon" width="48px" height="48.00px" viewBox="0 0 1024 1024" version="1.1" xmlns="http://www.w3.org/2000/svg"><path fill="#ff0000" d="M109.591489 149.58076c-22.966061 0-41.698704 18.705014-41.698704 41.698704 0 22.994714 18.732643 41.698704 41.698704 41.698704 22.967084 0 41.698704-18.703991 41.698704-41.698704C151.290193 168.284751 132.558573 149.58076 109.591489 149.58076zM262.160303 219.077577l667.177222 0c15.365966 0 27.799136-12.43317 27.799136-27.799136s-12.43317-27.799136-27.799136-27.799136L262.160303 163.479305c-15.365966 0-27.799136 12.43317-27.799136 27.799136S246.795361 219.077577 262.160303 219.077577zM109.102349 467.043089c-22.966061 0-41.698704 18.703991-41.698704 41.698704 0 22.99369 18.732643 41.698704 41.698704 41.698704 22.967084 0 41.698704-18.705014 41.698704-41.698704C150.801053 485.748103 132.069433 467.043089 109.102349 467.043089zM928.849408 480.942657 261.672186 480.942657c-15.365966 0-27.799136 12.43317-27.799136 27.799136s12.43317 27.799136 27.799136 27.799136l667.177222 0c15.365966 0 27.799136-12.43317 27.799136-27.799136S944.215374 480.942657 928.849408 480.942657zM108.559996 791.021831c-22.966061 0-41.698704 18.732643-41.698704 41.698704 0 23.02132 18.732643 41.698704 41.698704 41.698704 22.967084 0 41.698704-18.677385 41.698704-41.698704C150.258701 809.754474 131.527081 791.021831 108.559996 791.021831zM928.307056 804.921399 261.129834 804.921399c-15.365966 0-27.799136 12.488429-27.799136 27.799136 0 15.420201 12.43317 27.799136 27.799136 27.799136l667.177222 0c15.365966 0 27.799136-12.378935 27.799136-27.799136C956.106192 817.409828 943.673022 804.921399 928.307056 804.921399z" /></svg>